HIERARCHY
ROOT pelvis
{
  OFFSET 0 100 0
  CHANNELS 6 Xposition Yposition Zposition Zrotation Xrotation Yrotation
  JOINT pelvis_right_femur
  {
    OFFSET -10.78128 -3.44521 -0.5502486
    CHANNELS 3 Zrotation Xrotation Yrotation
    JOINT right_femur_tibia
    {
      OFFSET -0.8047443 -44.0398 -0.1307829
      CHANNELS 3 Zrotation Xrotation Yrotation
      JOINT right_tibia_foot
      {
        OFFSET 3.006224 -47.83518 -5
        CHANNELS 3 Zrotation Xrotation Yrotation
        End Site
        {
          OFFSET 0 -5 15
        }
      }
    }
  }
  JOINT pelvis_left_femur
  {
    OFFSET 10.78128 -3.44521 -0.5502486
    CHANNELS 3 Zrotation Xrotation Yrotation
    JOINT left_femur_tibia
    {
      OFFSET 0.8047443 -44.0398 -0.1307829
      CHANNELS 3 Zrotation Xrotation Yrotation
      JOINT left_tibia_foot
      {
        OFFSET -4.370144 -48.10324 -4.275266
        CHANNELS 3 Zrotation Xrotation Yrotation
        End Site
        {
          OFFSET 0 -5 15
        }
      }
    }
  }
  JOINT pelvis_spine1
  {
    OFFSET 0 6.468898 -3.129235
    CHANNELS 3 Zrotation Xrotation Yrotation
    JOINT spine1
    {
      OFFSET 0 23.15396 4.99043
      CHANNELS 3 Zrotation Xrotation Yrotation
      JOINT spine2
      {
        OFFSET 0 20.79997 -5.064912
        CHANNELS 3 Zrotation Xrotation Yrotation
        JOINT neck
        {
          OFFSET 0 14.38658 9.616178
          CHANNELS 3 Zrotation Xrotation Yrotation
          End Site
          {
            OFFSET 0 20 0
          }
        }
      }
      JOINT right_manubrium
      {
        OFFSET -5.722621 16.35077 3.967754
        CHANNELS 3 Zrotation Xrotation Yrotation
        JOINT right_clavicle
        {
          OFFSET -13.16364 1.694482 -4.693211
          CHANNELS 3 Zrotation Xrotation Yrotation
          JOINT right_humerus
          {
            OFFSET -28.5034 -0.3100689 -2.792744
            CHANNELS 3 Zrotation Xrotation Yrotation
            JOINT right_radius
            {
              OFFSET -25.15693 0.02248979 -1.271978
              CHANNELS 3 Zrotation Xrotation Yrotation
              End Site
              {
                OFFSET -15 0 0
              }
            }
          }
        }
      }
      JOINT left_manubrium
      {
        OFFSET 5.722621 16.35077 3.967754
        CHANNELS 3 Zrotation Xrotation Yrotation
        JOINT left_clavicle
        {
          OFFSET 13.16364 1.694482 -4.693211
          CHANNELS 3 Zrotation Xrotation Yrotation
          JOINT left_humerus
          {
            OFFSET 29.39168 -1.063119 -2.237045
            CHANNELS 3 Zrotation Xrotation Yrotation
            JOINT left_radius
            {
              OFFSET 24.59957 -0.9528479 0.9047498
              CHANNELS 3 Zrotation Xrotation Yrotation
              End Site
              {
                OFFSET 15 -0 -0
              }
            }
          }
        }
      }
    }
  }
}
MOTION
Frames: 11
Frame Time: 0.0416666666667
0 103.5113 0 -0.3577757 -2.978135 -0.166203 2.355617 -5.953102 9.795416 -0 32.63234 -0 -5.80122 -14.89114 -5.253504 -4.640769 10.52503 -20.17705 -0 6.254206 -0 13.71669 -13.44702 27.0177 -0.3029019 -2.7232 5.579579 -1.242353 10.22744 -6.556335 0.9884233 18.87583 10.19527 7.901962 -21.95023 6.882913 12.20484 -16.98849 12.55294 77.40983 28.2335 -17.42645 -0 0 23.50334 -9.063768 9.386557 -2.114402 9.672357 -22.5275 -2.361251 -102.1531 32.19871 24.76026 0 0 -10.30451 9.928468 28.5279 4.940536
0.3675153 103.5394 0.6241034 -0.3882081 -3.107308 -0.4729312 2.845065 -9.576299 9.682617 -0 38.48732 -0 -5.693335 -13.87395 -6.251071 -4.827005 11.15496 -19.76569 -0 6.039926 -0 13.4098 -14.02354 26.69422 -0.7927339 -2.032365 5.278069 -1.261697 10.38333 -6.837154 0.6505793 18.31261 10.38321 8.297727 -22.01369 6.209882 12.31219 -17.228 12.44974 77.17089 28.28952 -17.13442 -0 0 23.55018 -9.253924 9.304665 -1.756123 9.547018 -22.28484 -2.125261 -101.231 32.12138 24.37243 0 0 -10.68387 10.18652 27.92576 5.024838
0.66735 103.4998 1.56191 -0.4056682 -3.159525 -0.600142 3.644462 -13.48822 9.462028 -0 42.59207 -0 -5.802437 -13.2723 -6.820588 -4.862605 11.91643 -19.38777 -0 5.718302 -0 13.01721 -14.63171 26.30471 -1.075226 -1.253385 5.04249 -0.9917422 10.52986 -7.061417 0.6960426 18.00435 10.76451 8.829604 -22.37939 6.342418 12.14163 -17.22902 12.12621 77.208 28.41706 -17.21853 -0 0 23.25536 -9.35437 9.233164 -1.495796 9.335886 -22.25187 -1.985484 -100.2146 32.02452 23.76122 0 0 -11.33241 10.44509 27.26134 5.031538
0.923931 103.6037 2.75193 -0.4146756 -3.163611 -0.6160415 4.335049 -17.16212 8.890002 -0 44.14544 -0 -5.893482 -12.60011 -7.007288 -5.003591 12.8906 -18.82744 -0 5.40262 -0 12.53996 -15.25391 25.86498 -1.455915 -0.4376423 4.894311 -0.6472994 10.54262 -7.261054 0.7404463 17.79353 11.08201 9.214878 -22.82742 6.570468 11.8752 -17.10126 11.78657 77.49098 28.63462 -17.57615 -0 0 22.59289 -9.342871 9.175588 -1.344284 9.246226 -22.29759 -1.856308 -99.20817 31.89617 22.99074 0 0 -12.26297 10.71207 26.54764 4.967269
1.177505 103.5985 4.225359 -0.4184473 -3.139628 -0.5673842 4.794783 -20.49253 8.153074 -0 43.12898 -0 -5.919812 -11.59155 -6.746808 -5.041753 14.01865 -18.21687 -0 4.996342 -0 12.00401 -15.96178 25.27506 -1.806237 0.3854136 4.746476 -0.2041927 10.40773 -7.511984 0.7989717 17.60075 11.3302 9.48753 -23.29703 6.846546 11.4426 -16.86711 11.39222 77.97396 28.92671 -18.15431 -0 0 21.67032 -9.230615 9.130632 -1.262834 9.290733 -22.35716 -1.722237 -98.26549 31.72456 22.08989 0 0 -13.52421 10.98512 25.7961 4.80356
1.373878 103.5121 5.797276 -0.4022978 -3.015673 -0.2836367 4.925832 -23.53361 7.479246 -0 40.03636 -0 -5.965216 -10.36698 -6.09592 -5.009528 15.0916 -17.58608 -0 4.632021 -0 11.44894 -16.77757 24.51842 -2.19147 1.449349 4.597222 0.2991078 10.10004 -7.789718 0.8810226 17.34564 11.4896 9.671213 -23.81353 7.120443 10.99076 -16.66773 11.15341 78.55669 29.30757 -18.74249 -0 0 20.51387 -9.04765 9.093752 -1.220116 9.378906 -22.51654 -1.736865 -97.29074 31.5484 20.97452 0 0 -15.06673 11.22513 25.01162 4.562824
1.651664 103.1789 7.876446 -0.3907451 -2.917757 -0.06176261 4.918162 -26.0223 6.611875 -0 34.90382 -0 -5.878349 -9.264123 -5.349406 -5.060633 16.37708 -16.8464 -0 4.488936 -0 10.89497 -17.7025 23.60323 -2.484821 2.447045 4.392384 0.8692812 9.737045 -8.143184 0.9199888 17.01047 11.57857 9.74393 -24.31953 7.327381 10.46258 -16.3476 10.95473 79.30127 29.73788 -19.47428 -0 0 19.05483 -8.76334 9.045596 -1.232286 9.563015 -22.64728 -1.853691 -96.36549 31.3397 19.83196 0 0 -16.75841 11.40731 24.19145 4.294966
1.828091 102.6477 10.06214 -0.3395468 -2.613808 0.6464971 4.684515 -28.2275 5.867142 -0 29.06691 -0 -5.838278 -8.218128 -4.600057 -4.977645 17.49995 -16.06914 -0 4.494807 -0 10.31983 -18.70168 22.52465 -2.649555 3.396308 4.19286 1.254657 9.275381 -8.457606 1.017334 16.68894 11.53814 9.774433 -24.7902 7.457939 9.818496 -15.93667 10.85764 80.24729 30.19145 -20.18816 -0 0 17.58305 -8.447065 9.006265 -1.193536 9.695086 -22.86293 -1.888088 -95.36772 31.04134 18.60335 0 0 -18.38119 11.56402 23.33375 4.076456
1.973545 101.9148 13.00771 -0.2907144 -2.312194 1.349652 4.357005 -29.90379 5.146039 -0 23.78278 -0 -5.95813 -7.310692 -4.049174 -4.912091 18.74505 -15.42684 -0 5.094082 -0 9.632536 -19.63687 21.31336 -2.658893 4.098331 4.124154 1.507095 8.742011 -8.587348 1.140741 16.56973 11.36687 9.762398 -25.14498 7.47393 9.279494 -15.47706 10.80548 81.40075 30.67299 -20.95514 -0 0 15.88421 -8.101444 8.988391 -1.168757 9.593924 -23.02669 -1.727826 -94.48924 30.64557 17.59488 0 0 -19.66289 11.55342 22.44378 4.040849
2.109784 101.0905 16.32664 -0.2580999 -2.095835 1.853358 4.029929 -31.09829 4.458608 -0 19.915 -0 -6.297184 -6.533483 -3.740653 -4.878045 19.88437 -14.85766 -0 6.378966 -0 8.71978 -20.32119 19.93833 -2.609046 4.578738 3.924373 1.695728 8.381572 -8.786463 1.284864 16.58317 11.19807 9.726 -25.42332 7.556009 8.754562 -15.04272 10.63026 82.52637 31.06245 -21.7052 -0 0 14.41625 -7.874091 8.987529 -0.9665818 9.319631 -23.09487 -1.603186 -93.67373 30.23451 16.95263 0 0 -20.335 11.32709 21.5235 4.192573
2.133395 100.4258 20.22568 -0.2161482 -1.816207 2.506041 3.911828 -31.45381 3.651559 -0 17.82389 -0 -6.786379 -5.940509 -3.808167 -4.708866 21.10871 -14.11838 -0 8.354679 -0 7.498056 -20.44523 18.36473 -2.463736 4.722334 3.630078 1.887691 8.048643 -9.027058 1.314654 16.73982 11.05054 9.589421 -25.66148 7.625852 8.390643 -14.65349 10.40449 83.60322 31.38064 -22.39357 -0 0 13.04044 -7.779718 9.005915 -0.6194188 8.865241 -23.15353 -1.508337 -93.12472 29.8344 16.55942 0 0 -20.72614 10.98443 20.65639 4.456217
